<svg xmlns="http://www.w3.org/2000/svg" width="197.383" height="43.206" viewBox="0 0 197.383 43.206">
  <g id="Group_49" data-name="Group 49" transform="translate(-577 -126)">
    <g id="Group_47" data-name="Group 47" transform="translate(577 126)">
      <path id="Path_8" data-name="Path 8" d="M247.262,39.08a13.614,13.614,0,0,1-5.218-.954,12.3,12.3,0,0,1-4.009-2.673,11.694,11.694,0,0,1-2.545-3.945A13.165,13.165,0,0,1,234.6,26.8a13.593,13.593,0,0,1,.891-4.836,11.051,11.051,0,0,1,2.545-4.009,12.105,12.105,0,0,1,4.009-2.736,12.824,12.824,0,0,1,5.281-1.018,12.321,12.321,0,0,1,5.218,1.018,13.474,13.474,0,0,1,3.945,2.673,11.536,11.536,0,0,1,2.482,3.945,13.014,13.014,0,0,1,.827,4.645v1.145a2.951,2.951,0,0,1-.127.891H241.09a6.562,6.562,0,0,0,.7,2.545,7.05,7.05,0,0,0,1.4,1.909,6.843,6.843,0,0,0,1.973,1.209,7.069,7.069,0,0,0,5.727-.509,4.677,4.677,0,0,0,2.227-2.354L258.4,32.78a10.731,10.731,0,0,1-4.263,4.518A12.418,12.418,0,0,1,247.262,39.08ZM253.5,24.572a6.417,6.417,0,0,0-1.973-4.327,6.068,6.068,0,0,0-4.263-1.654,5.454,5.454,0,0,0-2.291.445,7.462,7.462,0,0,0-1.909,1.209,5.17,5.17,0,0,0-1.336,1.909,6.19,6.19,0,0,0-.636,2.418Z" transform="translate(-85.322 -5.164)"/>
      <path id="Path_1" data-name="Path 1" d="M0,25.108,19.344,13.4v6.49L8.908,26.444,19.28,32.68v6.872L0,28.1Z" transform="translate(0 -4.873)"/>
      <path id="Path_2" data-name="Path 2" d="M52.062,33.143a18.592,18.592,0,0,1-3.054,1.082,12.494,12.494,0,0,1-3.754.573,10.071,10.071,0,0,1-2.418-.318,5.293,5.293,0,0,1-1.973-1.018,4.474,4.474,0,0,1-1.336-1.845,7,7,0,0,1-.509-2.736V15.072H35.9V10.363h3.118V2.6h6.109v7.763h5.09v4.709h-5.09V26.78a2.119,2.119,0,0,0,.7,1.782,2.449,2.449,0,0,0,1.654.509,6.664,6.664,0,0,0,1.909-.318,8.78,8.78,0,0,0,1.463-.573Z" transform="translate(-13.057 -0.946)"/>
      <path id="Path_3" data-name="Path 3" d="M75.9,39.08a12.824,12.824,0,0,1-5.281-1.018,12.508,12.508,0,0,1-3.945-2.736,12.174,12.174,0,0,1-2.482-3.945,13.165,13.165,0,0,1-.891-4.709,13.509,13.509,0,0,1,.891-4.772,11.536,11.536,0,0,1,2.482-3.945A12.326,12.326,0,0,1,75.9,14.2a12.321,12.321,0,0,1,5.218,1.018,12.508,12.508,0,0,1,3.945,2.736A12.175,12.175,0,0,1,87.543,21.9a13.248,13.248,0,0,1,.891,4.772,12.907,12.907,0,0,1-.891,4.709,11.536,11.536,0,0,1-2.482,3.945,11.826,11.826,0,0,1-3.945,2.736A12.321,12.321,0,0,1,75.9,39.08ZM69.6,26.672a8.555,8.555,0,0,0,.509,2.927,6.8,6.8,0,0,0,1.336,2.291,5.515,5.515,0,0,0,1.973,1.464,5.427,5.427,0,0,0,2.482.509,5.767,5.767,0,0,0,4.454-1.973A6.8,6.8,0,0,0,81.689,29.6a8.555,8.555,0,0,0,.509-2.927,8.463,8.463,0,0,0-.509-2.863,6.8,6.8,0,0,0-1.336-2.291,5.515,5.515,0,0,0-1.973-1.464,5.965,5.965,0,0,0-4.963.064,6.581,6.581,0,0,0-1.973,1.527,6.8,6.8,0,0,0-1.336,2.291A6.771,6.771,0,0,0,69.6,26.672Z" transform="translate(-23.022 -5.164)"/>
      <path id="Path_4" data-name="Path 4" d="M123.517,39.08a9.521,9.521,0,0,1-4.9-1.273,9.042,9.042,0,0,1-3.309-3.436v14H109.2V14.582h5.345v4.136a10.05,10.05,0,0,1,3.436-3.309,9.415,9.415,0,0,1,4.836-1.209,10.859,10.859,0,0,1,4.518.954,10.512,10.512,0,0,1,3.563,2.673,12.275,12.275,0,0,1,2.354,3.945,13.454,13.454,0,0,1,.827,4.772,15.491,15.491,0,0,1-.764,4.9,13.46,13.46,0,0,1-2.163,4.009,9.72,9.72,0,0,1-7.636,3.627Zm-2.036-5.218a5.74,5.74,0,0,0,2.545-.573A6.047,6.047,0,0,0,126,31.7a7.645,7.645,0,0,0,1.273-2.354,7.961,7.961,0,0,0,.445-2.736,7.831,7.831,0,0,0-.509-2.8,6.928,6.928,0,0,0-1.4-2.291,6.385,6.385,0,0,0-2.1-1.527,5.745,5.745,0,0,0-4.391-.255,8.545,8.545,0,0,0-1.718.827,8.734,8.734,0,0,0-1.4,1.273,8.112,8.112,0,0,0-.954,1.591V29.09a8.539,8.539,0,0,0,2.545,3.436A5.988,5.988,0,0,0,121.481,33.862Z" transform="translate(-39.715 -5.164)"/>
      <path id="Path_5" data-name="Path 5" d="M163.053,39.007A17.44,17.44,0,0,1,160,38.752a24.586,24.586,0,0,1-3.118-.636,18.961,18.961,0,0,1-2.863-1.018,12.516,12.516,0,0,1-2.418-1.336l2.482-4.2a16.35,16.35,0,0,0,8.845,2.991,6.024,6.024,0,0,0,3.054-.7,2.137,2.137,0,0,0,1.082-1.973,2.079,2.079,0,0,0-1.336-1.909,24.956,24.956,0,0,0-4.391-1.336q-2.291-.573-4.009-1.145a8.794,8.794,0,0,1-2.672-1.4,4.776,4.776,0,0,1-1.464-1.782,5.555,5.555,0,0,1-.445-2.354,7.231,7.231,0,0,1,.764-3.309,7.608,7.608,0,0,1,2.036-2.482,9.961,9.961,0,0,1,3.054-1.591A12.308,12.308,0,0,1,162.417,14a15.514,15.514,0,0,1,5.09.827,21.536,21.536,0,0,1,4.772,2.163l-2.545,3.818a17.355,17.355,0,0,0-3.818-1.845,11.587,11.587,0,0,0-3.563-.573,5.521,5.521,0,0,0-2.8.636,2.224,2.224,0,0,0-1.145,2.036,1.9,1.9,0,0,0,1.082,1.782,18,18,0,0,0,3.818,1.209c1.718.445,3.182.827,4.391,1.273a11.9,11.9,0,0,1,2.991,1.464,6.016,6.016,0,0,1,1.718,1.909,5.464,5.464,0,0,1,.509,2.609,7.517,7.517,0,0,1-.7,3.182,7.192,7.192,0,0,1-1.973,2.418,10.183,10.183,0,0,1-3.118,1.527A13.693,13.693,0,0,1,163.053,39.007Z" transform="translate(-55.136 -5.092)"/>
      <path id="Path_6" data-name="Path 6" d="M191.2,6.109V0h6.109V6.109Zm0,27.361V9.417h6.109V33.406H191.2Z" transform="translate(-69.538)"/>
      <path id="Path_7" data-name="Path 7" d="M222.862,33.143a18.593,18.593,0,0,1-3.054,1.082,12.494,12.494,0,0,1-3.754.573,10.071,10.071,0,0,1-2.418-.318,5.293,5.293,0,0,1-1.973-1.018,4.474,4.474,0,0,1-1.336-1.845,7,7,0,0,1-.509-2.736V15.072H206.7V10.363h3.118V2.6h6.109v7.763h5.09v4.709h-5.09V26.78a2.119,2.119,0,0,0,.7,1.782,2.449,2.449,0,0,0,1.654.509,6.664,6.664,0,0,0,1.909-.318,8.78,8.78,0,0,0,1.464-.573Z" transform="translate(-75.175 -0.946)"/>
      <path id="Path_9" data-name="Path 9" d="M299.144,28.135,279.8,39.589V32.717l10.372-6.236L279.8,19.99V13.5l19.344,11.708Z" transform="translate(-101.761 -4.91)"/>
    </g>
  </g>
</svg>
